# xmcd CD database file
#
# Track frame offsets:
#	150
#	24472
#	43645
#	72307
#	87255
#	99607
#	121257
#	148122
#	171022
#	207822
#	230180
#	254235
#	282985
#	303322
#
# Disc length: 4394 seconds
#
# Revision: 0
# Processed by: cddbd v1.5PL3 Copyright (c) Steve Scherf et al.
# Submitted via: CDex 1.51
#
DISCID=cf11280e
DTITLE=Various Artist - パライソ -リラクシング・ムーズ・アンド・グルーヴズ・オン・ブルーノート-
DYEAR=2003
DGENRE=Jazz
TTITLE0=サンフランシスコ・ライツ／ボビ・ハンフリー
TTITLE1=ラヴァー・トゥ・ラヴァー／マキシ・アンダーソン
TTITLE2=ミス・ケーン／ドナルド・バード
TTITLE3=バック・オン・ザ・トラック／ジミー・マグリフ
TTITLE4=ユー・アー・ザ・サンシャイン・オブ・マイ・ライフ／ボビ・ハンフリー
TTITLE5=チューズデイ・ハートブレイク／ロニー・フォスター
TTITLE6=スカイ・ハイ／ドナルド・バード
TTITLE7=アフロディジア／ケニー・ドーハム
TTITLE8=リカード・ボサ・ノヴァ／ハンク・モブレー
TTITLE9=ザ・ケープ・ヴァーディーン・ブルース／ホレス・シルヴァー
TTITLE10=歌うあばずれ女／サブー
TTITLE11=マイ・リトル・スエード・シューズ／グラント・グリーン
TTITLE12=フラミンゴ／タル・ファーロウ
TTITLE13=処女航海／ボビー・ハッチャーソン
EXTD=YEAR: 2003
EXTT0=
EXTT1=
EXTT2=
EXTT3=
EXTT4=
EXTT5=
EXTT6=
EXTT7=
EXTT8=
EXTT9=
EXTT10=
EXTT11=
EXTT12=
EXTT13=
PLAYORDER=
